<?xml version="1.0" encoding="UTF-8" standalone="no"?>
<svg
   xmlns:dc="http://purl.org/dc/elements/1.1/"
   xmlns:cc="http://creativecommons.org/ns#"
   xmlns:rdf="http://www.w3.org/1999/02/22-rdf-syntax-ns#"
   xmlns:svg="http://www.w3.org/2000/svg"
   xmlns="http://www.w3.org/2000/svg"
   xmlns:sodipodi="http://sodipodi.sourceforge.net/DTD/sodipodi-0.dtd"
   xmlns:inkscape="http://www.inkscape.org/namespaces/inkscape"
   width="19.756603mm"
   height="84.85157mm"
   viewBox="0 0 19.756603 84.85157"
   version="1.1"
   id="svg334"
   inkscape:version="1.0.2-2 (e86c870879, 2021-01-15)"
   sodipodi:docname="bone_cutout.svg">
  <defs
     id="defs328" />
  <sodipodi:namedview
     id="base"
     pagecolor="#ffffff"
     bordercolor="#666666"
     borderopacity="1.0"
     inkscape:pageopacity="0.0"
     inkscape:pageshadow="2"
     inkscape:zoom="0.35"
     inkscape:cx="-308.37897"
     inkscape:cy="420.34944"
     inkscape:document-units="mm"
     inkscape:current-layer="layer1"
     inkscape:document-rotation="0"
     showgrid="false"
     inkscape:window-width="1267"
     inkscape:window-height="1040"
     inkscape:window-x="52"
     inkscape:window-y="0"
     inkscape:window-maximized="0" />
  <metadata
     id="metadata331">
    <rdf:RDF>
      <cc:Work
         rdf:about="">
        <dc:format>image/svg+xml</dc:format>
        <dc:type
           rdf:resource="http://purl.org/dc/dcmitype/StillImage" />
        <dc:title></dc:title>
      </cc:Work>
    </rdf:RDF>
  </metadata>
  <g
     inkscape:label="Layer 1"
     inkscape:groupmode="layer"
     id="layer1"
     transform="translate(-187.42527,-36.94921)">
    <path
       id="path249"
       style="fill:#ff5555;stroke-width:0.267269"
       d="m 191.00382,37.00386 c -1.41312,0.74435 -1.91863,2.41738 -2.47431,3.80297 -0.67172,1.98273 -1.02451,4.05522 -1.09831,6.04505 -0.0632,3.31615 0.36169,6.8013 2.10019,9.69063 0.5888,0.85195 1.32403,1.87147 2.48144,1.82635 0.99337,0.0213 2.00066,0.68961 2.02028,1.76 0.0226,1.53226 -0.0147,3.06738 0.006,4.60313 0,11.6707 0,23.3414 0,35.01211 -1.52316,0.42329 -3.48108,0.54838 -4.29341,2.13655 -2.12096,3.1072 -2.30197,7.02006 -2.22635,10.65775 0.10254,3.09381 0.7539,6.41262 2.91234,8.75843 0.35301,0.43426 0.88454,0.65567 1.16992,0.0352 1.49425,-1.85635 2.50083,-4.09371 4.21049,-5.77516 0.97238,-1.07136 2.68791,-0.49244 3.42623,0.56227 1.37785,1.95391 2.47874,4.20152 4.41797,5.68164 1.34226,-1.04199 1.99623,-2.71991 2.56089,-4.27237 1.10336,-3.41651 1.10455,-7.27402 0.5231,-10.85849 -0.41782,-2.09833 -1.14744,-4.31195 -2.78683,-5.77252 -0.91371,-0.77938 -2.2235,-0.62044 -3.20927,-1.206 -0.54526,-0.5437 -0.12409,-1.37025 -0.25,-2.04531 0,-13.09492 0,-26.18985 0,-39.28477 1.10731,-0.19306 2.3123,0.23063 3.35218,-0.27597 1.38408,-1.28582 2.09418,-3.12163 2.55093,-4.87242 1.21135,-4.6562 1.14517,-9.85012 -1.08686,-14.19624 -0.49155,-0.75182 -0.94514,-1.6824 -1.81625,-2.03623 -2.16818,1.79469 -3.34707,4.44795 -4.7741,6.81232 -0.34377,0.27904 -0.53569,1.52938 -0.992,1.08115 -1.92823,-1.60083 -3.65616,-3.46542 -4.85895,-5.67862 -0.49662,-0.80344 -0.98709,-1.63818 -1.72651,-2.2461 l -0.093,0.0367 z" />
  </g>
</svg>
