<?xml version="1.0" encoding="UTF-8" standalone="no"?>
<svg
   xmlns:dc="http://purl.org/dc/elements/1.1/"
   xmlns:cc="http://creativecommons.org/ns#"
   xmlns:rdf="http://www.w3.org/1999/02/22-rdf-syntax-ns#"
   xmlns:svg="http://www.w3.org/2000/svg"
   xmlns="http://www.w3.org/2000/svg"
   xmlns:sodipodi="http://sodipodi.sourceforge.net/DTD/sodipodi-0.dtd"
   xmlns:inkscape="http://www.inkscape.org/namespaces/inkscape"
   width="40mm"
   height="100mm"
   viewBox="0 0 40 100"
   version="1.1"
   id="svg136"
   inkscape:version="1.0.2-2 (e86c870879, 2021-01-15)"
   sodipodi:docname="bone_cutout_lip.svg">
  <defs
     id="defs130" />
  <sodipodi:namedview
     id="base"
     pagecolor="#ffffff"
     bordercolor="#666666"
     borderopacity="1.0"
     inkscape:pageopacity="0.0"
     inkscape:pageshadow="2"
     inkscape:zoom="0.35"
     inkscape:cx="400"
     inkscape:cy="676.52459"
     inkscape:document-units="mm"
     inkscape:current-layer="layer1"
     inkscape:document-rotation="0"
     showgrid="false"
     inkscape:window-width="1920"
     inkscape:window-height="1017"
     inkscape:window-x="-8"
     inkscape:window-y="-8"
     inkscape:window-maximized="1" />
  <metadata
     id="metadata133">
    <rdf:RDF>
      <cc:Work
         rdf:about="">
        <dc:format>image/svg+xml</dc:format>
        <dc:type
           rdf:resource="http://purl.org/dc/dcmitype/StillImage" />
        <dc:title></dc:title>
      </cc:Work>
    </rdf:RDF>
  </metadata>
  <g
     inkscape:label="Layer 1"
     inkscape:groupmode="layer"
     id="layer1">
    <path
       id="rect839-4-8-3-3"
       style="fill:#ffd5d5;stroke:#000000;stroke-width:0.584946;stroke-linecap:round;stroke-miterlimit:4;stroke-dasharray:none;stroke-opacity:1"
       d="M 0.29247299,0.29247299 V 99.707573 H 39.707633 V 0.29247299 Z M 14.187753,4.832753 c 2.34556,0.23058 3.9138,4.97475 5.80896,6.89001 0.96043,-1.80885 3.32576,-6.05546 5.81514,-6.89001 3.67276,0 6.6502,5.98453 6.65025,13.36662 0,7.382905 -2.97715,13.368176 -6.65025,13.368176 V 68.4325 c 3.673,0 6.65051,5.985457 6.65025,13.368179 0,7.382378 -2.97746,13.366618 -6.65025,13.366618 -2.4892,-0.834258 -4.85481,-5.081165 -5.81514,-6.890015 -1.89524,1.915213 -3.46364,6.659563 -5.80896,6.890015 -3.67278,0 -6.65019,-5.984531 -6.65025,-13.366618 0,-7.38288 2.97715,-13.368179 6.65025,-13.368179 V 31.567549 c -3.673,0 -6.65051,-5.985457 -6.65025,-13.368176 0,-7.38238 2.97747,-13.36662 6.65025,-13.36662 z" />
  </g>
</svg>
