<?xml version="1.0" encoding="UTF-8" standalone="no"?>
<svg
   xmlns:dc="http://purl.org/dc/elements/1.1/"
   xmlns:cc="http://creativecommons.org/ns#"
   xmlns:rdf="http://www.w3.org/1999/02/22-rdf-syntax-ns#"
   xmlns:svg="http://www.w3.org/2000/svg"
   xmlns="http://www.w3.org/2000/svg"
   xmlns:sodipodi="http://sodipodi.sourceforge.net/DTD/sodipodi-0.dtd"
   xmlns:inkscape="http://www.inkscape.org/namespaces/inkscape"
   sodipodi:docname="game_pieces.svg"
   inkscape:version="1.0.2-2 (e86c870879, 2021-01-15)"
   id="svg8"
   version="1.1"
   viewBox="0 0 1189 841"
   height="841mm"
   width="1189mm">
  <defs
     id="defs2" />
  <sodipodi:namedview
     units="in"
     inkscape:window-maximized="1"
     inkscape:window-y="-8"
     inkscape:window-x="-8"
     inkscape:window-height="1017"
     inkscape:window-width="1920"
     showgrid="false"
     inkscape:document-rotation="0"
     inkscape:current-layer="layer2"
     inkscape:document-units="mm"
     inkscape:cy="949.42631"
     inkscape:cx="939.11482"
     inkscape:zoom="0.7"
     inkscape:pageshadow="2"
     inkscape:pageopacity="0.0"
     borderopacity="1.0"
     bordercolor="#666666"
     pagecolor="#ffffff"
     id="base" />
  <metadata
     id="metadata5">
    <rdf:RDF>
      <cc:Work
         rdf:about="">
        <dc:format>image/svg+xml</dc:format>
        <dc:type
           rdf:resource="http://purl.org/dc/dcmitype/StillImage" />
        <dc:title />
      </cc:Work>
    </rdf:RDF>
  </metadata>
  <g
     style="display:inline"
     id="layer1"
     inkscape:groupmode="layer"
     inkscape:label="Layer 1" />
  <g
     inkscape:label="part"
     id="layer2"
     inkscape:groupmode="layer">
    <path
       id="rect264"
       style="fill:#ff5555;stroke-width:1.25886"
       d="m 1617.1426,621.42773 v 302.36329 h 226.7715 V 621.42773 Z m 68.5859,35.07422 c 4.2275,0.0431 21.5067,1.76707 27.4141,26.57813 6.7513,28.35549 1.9223,52.94632 10.8027,60.31054 18.4536,15.30297 41.4077,24.75563 55.8106,44.10938 11.6663,15.67661 29.5265,64.97396 29.2558,72.01367 -0.45,11.70233 -3.1503,13.50321 -11.2519,14.85352 -8.1016,1.35023 -22.954,-16.20434 -46.8086,-66.16407 -23.8546,-49.9596 -44.559,-11.25151 -46.3594,-5.40039 -1.8003,5.85113 -6.7517,25.65583 -1.8008,52.21094 4.9509,26.55515 9.0028,31.95489 0.4512,39.15625 -8.5517,7.2014 -29.2566,-5.40099 -36.0078,-40.50781 -6.7514,-35.10675 4.5006,-60.31168 11.2519,-76.96484 6.7513,-16.65325 0.8997,-33.30622 -1.8008,-63.91211 -2.7005,-30.60594 -10.8021,-52.20899 8.1016,-56.25977 0,0 0.3375,-0.0296 0.9414,-0.0234 z"
       transform="scale(0.26458333)" />
    <path
       id="rect839-4-0"
       style="fill:#ff9955;stroke:#000000;stroke-width:0.509193;stroke-linecap:round;stroke-miterlimit:4;stroke-dasharray:none;stroke-opacity:1"
       d="m 115.51026,303.11292 v 54.49075 h 54.49073 v -54.49075 z m 7.43055,7.43056 h 39.62963 v 39.62963 h -39.62963 z" />
    <rect
       y="192.2675"
       x="133.33456"
       height="75"
       width="110"
       id="rect846"
       style="fill:#440055;fill-opacity:1;stroke:none;stroke-width:0.656727;stroke-linecap:round;stroke-opacity:1" />
    <ellipse
       style="fill:#d42aff;fill-opacity:1;stroke:none;stroke-width:1.50395;stroke-linecap:round;stroke-opacity:1"
       id="path863-4"
       cx="188.33456"
       cy="229.7675"
       rx="45"
       ry="27.5" />
    <ellipse
       ry="25"
       rx="42.5"
       cy="229.7675"
       cx="188.33456"
       id="path863"
       style="fill:#e580ff;fill-opacity:1;stroke:none;stroke-width:1.39356;stroke-linecap:round;stroke-opacity:1" />
    <ellipse
       style="fill:#ddafe9;fill-opacity:1;stroke:none;stroke-width:1.28257;stroke-linecap:round;stroke-opacity:1"
       id="path863-9"
       cx="188.33456"
       cy="229.7675"
       rx="40"
       ry="22.5" />
    <text
       xml:space="preserve"
       style="font-style:normal;font-weight:normal;font-size:10.5833px;line-height:1.25;font-family:sans-serif;fill:#000000;fill-opacity:1;stroke:none;stroke-width:0.264583"
       x="29.104166"
       y="175.75891"
       id="text846"><tspan
         sodipodi:role="line"
         id="tspan844"
         x="29.104166"
         y="175.75891"
         style="font-size:6.35px;stroke-width:0.264583">15mm known height</tspan></text>
    <text
       id="text846-6"
       y="190.74458"
       x="30.244667"
       style="font-style:normal;font-weight:normal;font-size:10.5833px;line-height:1.25;font-family:sans-serif;fill:#000000;fill-opacity:1;stroke:none;stroke-width:0.264583"
       xml:space="preserve"><tspan
         style="font-size:6.35px;stroke-width:0.264583"
         y="190.74458"
         x="30.244667"
         id="tspan844-9"
         sodipodi:role="line">5 mm diameter</tspan></text>
    <path
       id="rect839-4-1"
       style="fill:#ffd5d5;stroke:#000000;stroke-width:0.462902;stroke-linecap:round;stroke-miterlimit:4;stroke-dasharray:none;stroke-opacity:1"
       d="m 195.1085,284.88867 v 49.53704 h 49.53703 v -49.53704 z m 15.81092,8.0476 h 5.2e-4 c 0.35952,0.006 0.71856,0.0333 1.07849,0.077 4.49,0.54523 6.60909,3.03723 7.60728,5.18057 0.9982,-2.14334 3.1167,-4.63529 7.60678,-5.18057 11.51806,-1.39877 23.50712,16.5694 -7.51066,35.22369 -0.0329,-0.0593 -0.15985,-0.0593 -0.19275,0 -30.04877,-18.07128 -19.7352,-35.50108 -8.58966,-35.30068 z" />
    <path
       id="rect839-4-8-3"
       style="fill:#ffd5d5;stroke:#000000;stroke-width:0.33329;stroke-linecap:round;stroke-miterlimit:4;stroke-dasharray:none;stroke-opacity:1"
       d="m 124.92227,312.52494 h 35.66671 v 35.66671 h -35.66671 z" />
    <path
       d="m 210.92624,292.95373 c -11.19291,-0.20028 -21.55034,17.22189 8.62617,35.28508 0.0329,-0.0593 0.16031,-0.0593 0.1934,0 31.14962,-18.64596 19.10981,-36.6062 7.54277,-35.20809 -4.50916,0.54506 -6.63699,3.03589 -7.63944,5.17825 -1.00243,-2.14236 -3.13036,-4.63322 -7.63943,-5.17825 -0.36146,-0.0436 -0.72201,-0.0707 -1.08305,-0.0769 z"
       fill="none"
       stroke="#000000"
       stroke-linejoin="round"
       stroke-width="0.308695"
       id="path2-6-6" />
    <path
       id="rect839-4-8-3-3"
       style="fill:#ffd5d5;stroke:#000000;stroke-width:2.21082;stroke-linecap:round;stroke-miterlimit:4;stroke-dasharray:none;stroke-opacity:1"
       d="m 1423.0742,1064.502 v 375.7421 h 148.9707 V 1064.502 Z m 52.5176,17.1601 c 8.8651,0.8715 14.7923,18.8022 21.9551,26.041 3.63,-6.8366 12.5698,-22.8868 21.9785,-26.041 13.8813,0 25.1346,22.6187 25.1348,50.5195 0,27.9039 -11.2522,50.5254 -25.1348,50.5254 v 139.3321 c 13.8822,0 25.1358,22.6222 25.1348,50.5254 0,27.9019 -11.2534,50.5195 -25.1348,50.5195 -9.408,-3.1531 -18.3489,-19.2044 -21.9785,-26.041 -7.1631,7.2386 -13.0909,25.17 -21.9551,26.041 -13.8814,0 -25.1346,-22.6187 -25.1348,-50.5195 0,-27.9038 11.2522,-50.5254 25.1348,-50.5254 V 1182.707 c -13.8822,0 -25.1358,-22.6222 -25.1348,-50.5254 0,-27.9019 11.2534,-50.5195 25.1348,-50.5195 z"
       transform="scale(0.26458333)" />
    <path
       id="rect30"
       style="fill:#ff9955;stroke-width:1.08736"
       d="m 785.89844,1394.0098 v 226.7714 h 113.38672 v -226.7714 z m 47.24414,28.3476 h 18.89844 c 10.46929,0 18.89648,8.4272 18.89648,18.8965 v 132.2832 c 0,10.4693 -8.42719,18.8984 -18.89648,18.8984 h -18.89844 c -10.46929,0 -18.89844,-8.4291 -18.89844,-18.8984 v -132.2832 c 0,-10.4693 8.42915,-18.8965 18.89844,-18.8965 z"
       transform="scale(0.26458333)" />
    <path
       id="path2-6-6-9"
       d="m 210.35742,295.0625 c -4.46627,0.15793 -8.63948,4.1081 -8.50757,8.67812 -0.0978,4.46708 2.31045,8.52918 5.15166,11.79938 3.55367,4.14971 8.08616,7.28022 12.58052,10.31742 5.92152,-3.8196 11.78343,-8.19382 15.50741,-14.3042 2.11167,-3.31275 3.09146,-7.68019 1.43115,-11.3862 -1.9731,-4.6215 -8.41358,-6.64497 -12.59342,-3.77416 -1.32617,0.78149 -2.08525,2.17149 -2.98001,3.34876 -1.39098,0.83631 -3.26386,-0.0873 -3.8018,-1.53028 -1.47049,-2.18343 -4.19591,-3.3372 -6.78794,-3.14884 z" />
    <path
       id="path249"
       style="fill:#ff5555;stroke-width:0.267269"
       d="m 389.92969,288.98828 c -1.41312,0.74435 -1.91863,2.41738 -2.47431,3.80297 -0.67172,1.98273 -1.02451,4.05522 -1.09831,6.04505 -0.0632,3.31615 0.36169,6.8013 2.10019,9.69063 0.5888,0.85195 1.32403,1.87147 2.48144,1.82635 0.99337,0.0213 2.00066,0.68961 2.02028,1.76 0.0226,1.53226 -0.0147,3.06738 0.006,4.60313 0,11.6707 0,23.3414 0,35.01211 -1.52316,0.42329 -3.48108,0.54838 -4.29341,2.13655 -2.12096,3.1072 -2.30197,7.02006 -2.22635,10.65775 0.10254,3.09381 0.7539,6.41262 2.91234,8.75843 0.35301,0.43426 0.88454,0.65567 1.16992,0.0352 1.49425,-1.85635 2.50083,-4.09371 4.21049,-5.77516 0.97238,-1.07136 2.68791,-0.49244 3.42623,0.56227 1.37785,1.95391 2.47874,4.20152 4.41797,5.68164 1.34226,-1.04199 1.99623,-2.71991 2.56089,-4.27237 1.10336,-3.41651 1.10455,-7.27402 0.5231,-10.85849 -0.41782,-2.09833 -1.14744,-4.31195 -2.78683,-5.77252 -0.91371,-0.77938 -2.2235,-0.62044 -3.20927,-1.206 -0.54526,-0.5437 -0.12409,-1.37025 -0.25,-2.04531 0,-13.09492 0,-26.18985 0,-39.28477 1.10731,-0.19306 2.3123,0.23063 3.35218,-0.27597 1.38408,-1.28582 2.09418,-3.12163 2.55093,-4.87242 1.21135,-4.6562 1.14517,-9.85012 -1.08686,-14.19624 -0.49155,-0.75182 -0.94514,-1.6824 -1.81625,-2.03623 -2.16818,1.79469 -3.34707,4.44795 -4.7741,6.81232 -0.34377,0.27904 -0.53569,1.52938 -0.992,1.08115 -1.92823,-1.60083 -3.65616,-3.46542 -4.85895,-5.67862 -0.49662,-0.80344 -0.98709,-1.63818 -1.72651,-2.2461 l -0.093,0.0367 z" />
    <path
       id="path259"
       style="fill:#ff5555;stroke-width:0.377976"
       d="m 221.83008,378.18945 c -1.27419,0.01 -2.75309,-0.0549 -3.68164,0.98243 -0.93076,0.96166 -0.73466,2.42915 -0.89238,3.65556 -0.29118,7.25699 -0.11792,14.52177 -0.13463,21.78228 0.0407,4.20372 8.3e-4,8.41933 0.32584,12.61098 0.36093,1.48179 1.96132,2.28906 3.40391,2.16008 1.91534,0.071 3.83234,0.0226 5.74843,0.0391 0.61914,-0.56706 1.23828,-1.13411 1.85742,-1.70117 0.0298,-11.12151 0.19619,-22.24425 0.0836,-33.36515 -0.0971,-1.67166 0.17074,-3.49302 -0.64023,-5.02352 -0.73845,-1.19065 -2.26792,-1.02328 -3.47333,-1.12368 -0.86522,-0.0265 -1.73144,-0.0164 -2.59698,-0.0169 z" />
    <path
       id="path267"
       style="fill:#ff5555;stroke-width:0.377976"
       d="m 445.83789,175.53711 c -0.57491,0.3133 -0.95377,0.86595 -1.42578,1.30273 0.35092,8.16315 1.59487,16.27839 2.39426,24.43314 0.12464,0.6711 0.15293,1.33018 -0.16967,1.95374 -1.6682,5.18546 -3.81325,10.27013 -4.23826,15.74789 -0.15691,3.40047 0.45862,6.85021 1.52448,10.11348 0.86381,2.52551 2.47993,5.26461 5.15911,6.25175 0.88844,-0.30604 1.01725,-1.37969 0.88672,-2.19726 -0.47996,-4.23991 -1.75754,-8.42745 -1.74148,-12.7519 -0.0252,-3.06988 0.38235,-6.17287 1.35733,-9.08776 0.86383,-2.08471 2.50333,-3.75786 4.26696,-5.11151 1.55417,-0.89231 3.52239,-0.76279 5.15765,-0.18173 2.44289,1.06318 3.73616,3.56381 5.02786,5.74098 3.07634,5.44651 5.6961,11.24328 9.59043,16.13312 0.60344,0.64812 1.22245,1.64626 2.21039,1.6006 1.09594,-0.35045 1.07927,-1.73895 0.85712,-2.65703 -0.79324,-3.04212 -1.93309,-5.96527 -3.07144,-8.87948 -1.21669,-2.89276 -2.44299,-5.79091 -4.25088,-8.35092 -2.95458,-3.9412 -7.30101,-6.4422 -11.25792,-9.23523 -1.41089,-1.02257 -2.95795,-1.96272 -4.03274,-3.35781 -1.08197,-1.7114 -0.95965,-3.82427 -1.27234,-5.75302 -0.47948,-4.4305 -0.59298,-9.0856 -2.65512,-13.13798 -0.86589,-1.56789 -2.48666,-2.65404 -4.31668,-2.5758 z" />
  </g>
</svg>
