<?xml version="1.0" encoding="UTF-8" standalone="no"?>
<svg
   xmlns:dc="http://purl.org/dc/elements/1.1/"
   xmlns:cc="http://creativecommons.org/ns#"
   xmlns:rdf="http://www.w3.org/1999/02/22-rdf-syntax-ns#"
   xmlns:svg="http://www.w3.org/2000/svg"
   xmlns="http://www.w3.org/2000/svg"
   xmlns:sodipodi="http://sodipodi.sourceforge.net/DTD/sodipodi-0.dtd"
   xmlns:inkscape="http://www.inkscape.org/namespaces/inkscape"
   width="11.493926mm"
   height="41.232929mm"
   viewBox="0 0 11.493926 41.232929"
   version="1.1"
   id="svg278"
   inkscape:version="1.0.2-2 (e86c870879, 2021-01-15)"
   sodipodi:docname="sausage_cutout.svg">
  <defs
     id="defs272" />
  <sodipodi:namedview
     id="base"
     pagecolor="#ffffff"
     bordercolor="#666666"
     borderopacity="1.0"
     inkscape:pageopacity="0.0"
     inkscape:pageshadow="2"
     inkscape:zoom="0.35"
     inkscape:cx="90.292229"
     inkscape:cy="183.63477"
     inkscape:document-units="mm"
     inkscape:current-layer="layer1"
     inkscape:document-rotation="0"
     showgrid="false"
     inkscape:window-width="1920"
     inkscape:window-height="1017"
     inkscape:window-x="-8"
     inkscape:window-y="-8"
     inkscape:window-maximized="1" />
  <metadata
     id="metadata275">
    <rdf:RDF>
      <cc:Work
         rdf:about="">
        <dc:format>image/svg+xml</dc:format>
        <dc:type
           rdf:resource="http://purl.org/dc/dcmitype/StillImage" />
        <dc:title></dc:title>
      </cc:Work>
    </rdf:RDF>
  </metadata>
  <g
     inkscape:label="Layer 1"
     inkscape:groupmode="layer"
     id="layer1"
     transform="translate(-81.943514,-99.579967)">
    <path
       id="path259"
       style="fill:#ff5555;stroke-width:0.377976"
       d="m 86.68826,99.58144 c -1.27419,0.01 -2.75309,-0.0549 -3.68164,0.98243 -0.93076,0.96166 -0.73466,2.42915 -0.89238,3.65556 -0.29118,7.25699 -0.11792,14.52177 -0.13463,21.78228 0.0407,4.20372 8.3e-4,8.41933 0.32584,12.61098 0.36093,1.48179 1.96132,2.28906 3.40391,2.16008 1.91534,0.071 3.83234,0.0226 5.74843,0.0391 0.61914,-0.56706 1.23828,-1.13411 1.85742,-1.70117 0.0298,-11.12151 0.19619,-22.24425 0.0836,-33.36515 -0.0971,-1.67166 0.17074,-3.49302 -0.64023,-5.02352 -0.73845,-1.19065 -2.26792,-1.02328 -3.47333,-1.12368 -0.86522,-0.0265 -1.73144,-0.0164 -2.59698,-0.0169 z" />
  </g>
</svg>
