<?xml version="1.0" encoding="UTF-8" standalone="no"?>
<svg
   xmlns:dc="http://purl.org/dc/elements/1.1/"
   xmlns:cc="http://creativecommons.org/ns#"
   xmlns:rdf="http://www.w3.org/1999/02/22-rdf-syntax-ns#"
   xmlns:svg="http://www.w3.org/2000/svg"
   xmlns="http://www.w3.org/2000/svg"
   xmlns:sodipodi="http://sodipodi.sourceforge.net/DTD/sodipodi-0.dtd"
   xmlns:inkscape="http://www.inkscape.org/namespaces/inkscape"
   width="34.441246mm"
   height="59.806698mm"
   viewBox="0 0 34.441246 59.806698"
   version="1.1"
   id="svg373"
   inkscape:version="1.0.2-2 (e86c870879, 2021-01-15)"
   sodipodi:docname="wishbone_cutout.svg">
  <defs
     id="defs367" />
  <sodipodi:namedview
     id="base"
     pagecolor="#ffffff"
     bordercolor="#666666"
     borderopacity="1.0"
     inkscape:pageopacity="0.0"
     inkscape:pageshadow="2"
     inkscape:zoom="0.35"
     inkscape:cx="113.65726"
     inkscape:cy="338.73481"
     inkscape:document-units="mm"
     inkscape:current-layer="layer1"
     inkscape:document-rotation="0"
     showgrid="false"
     inkscape:window-width="1267"
     inkscape:window-height="1040"
     inkscape:window-x="104"
     inkscape:window-y="0"
     inkscape:window-maximized="0" />
  <metadata
     id="metadata370">
    <rdf:RDF>
      <cc:Work
         rdf:about="">
        <dc:format>image/svg+xml</dc:format>
        <dc:type
           rdf:resource="http://purl.org/dc/dcmitype/StillImage" />
        <dc:title></dc:title>
      </cc:Work>
    </rdf:RDF>
  </metadata>
  <g
     inkscape:label="Layer 1"
     inkscape:groupmode="layer"
     id="layer1"
     transform="translate(-75.761516,-58.543081)">
    <path
       id="path267"
       style="fill:#ff5555;stroke-width:0.377976"
       d="m 79.22522,58.54705 c -0.57491,0.3133 -0.95377,0.86595 -1.42578,1.30273 0.35092,8.16315 1.59487,16.27839 2.39426,24.43314 0.12464,0.6711 0.15293,1.33018 -0.16967,1.95374 -1.6682,5.18546 -3.81325,10.27013 -4.23826,15.74789 -0.15691,3.40047 0.45862,6.85021 1.52448,10.11348 0.86381,2.52551 2.47993,5.26461 5.15911,6.25175 0.88844,-0.30604 1.01725,-1.37969 0.88672,-2.19726 -0.47996,-4.23991 -1.75754,-8.42745 -1.74148,-12.7519 -0.0252,-3.06988 0.38235,-6.17287 1.35733,-9.08776 0.86383,-2.08471 2.50333,-3.75786 4.26696,-5.11151 1.55417,-0.89231 3.52239,-0.76279 5.15765,-0.18173 2.44289,1.06318 3.73616,3.56381 5.02786,5.74098 3.07634,5.44651 5.6961,11.24328 9.59043,16.13312 0.60344,0.64812 1.22245,1.64626 2.21039,1.6006 1.09594,-0.35045 1.07927,-1.73895 0.85712,-2.65703 -0.79324,-3.04212 -1.93309,-5.96527 -3.07144,-8.87948 -1.21669,-2.89276 -2.44299,-5.79091 -4.25088,-8.35092 -2.95458,-3.9412 -7.30101,-6.4422 -11.25792,-9.23523 -1.41089,-1.02257 -2.95795,-1.96272 -4.03274,-3.35781 -1.08197,-1.7114 -0.95965,-3.82427 -1.27234,-5.75302 -0.47948,-4.4305 -0.59298,-9.0856 -2.65512,-13.13798 -0.86589,-1.56789 -2.48666,-2.65404 -4.31668,-2.5758 z" />
  </g>
</svg>
